# xmcd
#
# Track frame offsets: 
#        150
#        15830
#        37221
#        61643
#        87397
#        101184
#        114423
#        130738
#        152213
#        167403
#        180626
#        200201
#        211592
#        231758
#        261084
#        282195
#
# Disc length: 4061 seconds
#
# Revision: 0
# Processed by: cddbd v1.5.2PL0 Copyright (c) Steve Scherf et al.
# Submitted via: ExactAudioCopy v0.99pb1
#
DISCID=d40fdb10
DTITLE=Alison Krauss -   Hundred Miles Or More: A Collection CD
DYEAR=2007
DGENRE=Country
TTITLE0=You're Just A Country Boy
TTITLE1=Simple Love
TTITLE2=Jacob's Dream
TTITLE3=Away Down The River
TTITLE4=Sawing On The Strings
TTITLE5=Down To The River To Pray
TTITLE6=Baby Mine
TTITLE7=Molly Ban
TTITLE8=How's The World Treating You (Duet With James Taylor)
TTITLE9=The Scarlet Tide
TTITLE10=Whiskey Lullaby (Duet With Brad Paisley)
TTITLE11=You Will Be My Ain True Love
TTITLE12=I Give You To His Heart
TTITLE13=Get Me Through December
TTITLE14=Missing You (Duet With John Waite)
TTITLE15=Lay Down Beside Me (Duet With John Waite)
EXTD=
EXTT0=
EXTT1=
EXTT2=
EXTT3=
EXTT4=
EXTT5=
EXTT6=
EXTT7=
EXTT8=
EXTT9=
EXTT10=
EXTT11=
EXTT12=
EXTT13=
EXTT14=
EXTT15=
PLAYORDER=
